<svg width="57" height="56" viewBox="0 0 57 56" fill="none" xmlns="http://www.w3.org/2000/svg">
<rect x="1" y="0.5" width="55" height="55" rx="27.5" fill="#FAFAFA"/>
<rect x="1" y="0.5" width="55" height="55" rx="27.5" stroke="#D1D1DF"/>
<path d="M25.052 34.176C24.0387 34.176 23.148 33.936 22.38 33.456C21.6227 32.976 21.0307 32.304 20.604 31.44C20.188 30.5653 19.98 29.552 19.98 28.4C19.98 27.2373 20.188 26.224 20.604 25.36C21.0307 24.496 21.6227 23.824 22.38 23.344C23.148 22.864 24.0387 22.624 25.052 22.624C26.0653 22.624 26.9507 22.864 27.708 23.344C28.476 23.824 29.068 24.496 29.484 25.36C29.9107 26.224 30.124 27.2373 30.124 28.4C30.124 29.552 29.9107 30.5653 29.484 31.44C29.068 32.304 28.476 32.976 27.708 33.456C26.9507 33.936 26.0653 34.176 25.052 34.176ZM25.052 31.936C25.5747 31.936 26.0227 31.7973 26.396 31.52C26.78 31.232 27.0733 30.8213 27.276 30.288C27.4893 29.7547 27.596 29.1253 27.596 28.4C27.596 27.664 27.4893 27.0347 27.276 26.512C27.0733 25.9787 26.78 25.5733 26.396 25.296C26.0227 25.008 25.5747 24.864 25.052 24.864C24.5293 24.864 24.076 25.008 23.692 25.296C23.3187 25.5733 23.0253 25.9787 22.812 26.512C22.6093 27.0347 22.508 27.664 22.508 28.4C22.508 29.1253 22.6093 29.7547 22.812 30.288C23.0253 30.8213 23.3187 31.232 23.692 31.52C24.076 31.7973 24.5293 31.936 25.052 31.936ZM33.2174 34V25.424L30.8974 26.352V24.112L34.1774 22.8H35.8094V34H33.2174Z" fill="#87879D"/>
</svg>
